<svg width="1488" height="1120" viewBox="0 0 1488 1120" fill="none" xmlns="http://www.w3.org/2000/svg">
<path d="M1210.19 918.815L1063.42 1020.93H1304.19L1278.69 1119.93H247.687L218.187 1020.93H449.187L315.687 917.168L282.687 794.428L574.721 1020.93H914.8L1237.23 801.835L1210.19 918.815ZM750.499 801.835L1487.57 203.801L1334.14 939.04L1237.23 918.815L1333.8 456.055L750.874 929.02L165.373 459.655L277.27 917.168L181.104 940.688L0 200.2L750.499 801.835ZM980.311 560.928L904.491 625.959L750.345 255.854L593.779 626.202L518.024 560.928L751.027 0L980.311 560.928Z" fill="#FFB800"/>
</svg>
